<?xml version="1.0" encoding="utf-8"?>
<!-- Generator: Adobe Illustrator 21.0.0, SVG Export Plug-In . SVG Version: 6.00 Build 0)  -->
<svg version="1.1" id="Layer_1" xmlns="http://www.w3.org/2000/svg" xmlns:xlink="http://www.w3.org/1999/xlink" x="0px" y="0px"
	 viewBox="0 0 212.6 283.5" style="enable-background:new 0 0 212.6 283.5;" xml:space="preserve" width="150" height="200">
<g>
	<path d="M211.6,1v281.5H1V1H211.6 M212.6,0H0v283.5h212.6V0L212.6,0z"/>
	<path d="M198.9,269.8H13.7V13.7h185.3V269.8z M14.7,268.8h183.3V14.7H14.7V268.8z"/>
	<polygon points="1.7,282.5 14.5,269.6 13.8,268.9 1,281.8 1,282.5 	"/>
	<polygon points="1,1.7 13.8,14.5 14.5,13.8 1.7,1 1,1 	"/>
	<polygon points="210.9,1 198.1,13.8 198.8,14.5 211.6,1.7 211.6,1 	"/>
	<polygon points="198.1,269.6 210.9,282.5 211.6,282.5 211.6,281.8 198.8,268.9 	"/>
</g>
</svg>
