<?xml version="1.0" encoding="utf-8"?>
<!-- Generator: Adobe Illustrator 21.0.0, SVG Export Plug-In . SVG Version: 6.00 Build 0)  -->
<svg version="1.1" id="Layer_1" xmlns="http://www.w3.org/2000/svg" xmlns:xlink="http://www.w3.org/1999/xlink" x="0px" y="0px"
	 viewBox="0 0 212.6 283.5" style="enable-background:new 0 0 212.6 283.5;" xml:space="preserve" width="150" height="200">
<g>
	<path d="M211.6,1v281.5H1V1H211.6 M212.6,0H0v283.5h212.6V0L212.6,0z"/>
	<path d="M198.9,269.8H13.7V13.7h185.3V269.8z M14.7,268.8h183.3V14.7H14.7V268.8z"/>
	<path d="M51.7,18c0,1,0.6,1.9,1.4,1.9c0.8,0,1.4-0.9,1.4-1.9v-3.8h-2.8V18z"/>
	<path d="M158,18c0,1,0.6,1.9,1.4,1.9s1.4-0.9,1.4-1.9v-3.8H158V18z"/>
	<path d="M160.9,265.5c0-1-0.6-1.9-1.4-1.9s-1.4,0.9-1.4,1.9v3.8h2.8V265.5z"/>
	<path d="M54.6,265.5c0-1-0.6-1.9-1.4-1.9c-0.8,0-1.4,0.9-1.4,1.9v3.8h2.8V265.5z"/>
	<path d="M194.6,69.4c-1,0-1.9,0.6-1.9,1.4s0.9,1.4,1.9,1.4h3.8v-2.8H194.6z"/>
	<path d="M194.6,211.2c-1,0-1.9,0.6-1.9,1.4c0,0.8,0.9,1.4,1.9,1.4h3.8v-2.8H194.6z"/>
	<path d="M18,214c1,0,1.9-0.6,1.9-1.4c0-0.8-0.9-1.4-1.9-1.4h-3.8v2.8H18z"/>
	<path d="M18,72.3c1,0,1.9-0.6,1.9-1.4S19,69.4,18,69.4h-3.8v2.8H18z"/>
	<path d="M110.6,36.4c1.1,0,2,0.3,2.3,0.9s0.2,1.5-0.3,2.5l-4.2,7.2c-0.6,1-1.3,1.5-2,1.5c-0.7,0-1.4-0.6-2-1.5l-4.2-7.2
		c-0.6-1-0.7-1.9-0.3-2.5c0.3-0.6,1.2-0.9,2.3-0.9H110.6 M110.6,35.4H102c-3.1,0-4.4,2.2-2.8,4.9l4.2,7.2c0.8,1.3,1.8,2,2.9,2
		c1,0,2.1-0.7,2.9-2l4.2-7.2C114.9,37.6,113.7,35.4,110.6,35.4L110.6,35.4z"/>
	<path d="M106.3,28.3c-3.1,0-5.7,1.3-5.7,2.8v5.7H112v-5.7C112,29.6,109.4,28.3,106.3,28.3z M106.3,34c-0.8,0-1.4-0.6-1.4-1.4
		c0-0.8,0.6-1.4,1.4-1.4c0.8,0,1.4,0.6,1.4,1.4C107.7,33.4,107.1,34,106.3,34z"/>
	<polygon points="1.7,282.5 14.5,269.6 13.8,268.9 1,281.8 1,282.5 	"/>
	<polygon points="1,1.7 13.8,14.5 14.5,13.8 1.7,1 1,1 	"/>
	<polygon points="210.9,1 198.1,13.8 198.8,14.5 211.6,1.7 211.6,1 	"/>
	<polygon points="198.1,269.6 210.9,282.5 211.6,282.5 211.6,281.8 198.8,268.9 	"/>
</g>
</svg>
